<?xml version="1.0" encoding="iso-8859-1"?>
<!-- Generator: Adobe Illustrator 16.0.0, SVG Export Plug-In . SVG Version: 6.00 Build 0) -->
<!DOCTYPE svg PUBLIC "-//W3C//DTD SVG 1.1//EN" "http://www.w3.org/Graphics/SVG/1.1/DTD/svg11.dtd">
<svg 
	version="1.1" 
	id="Layer_1"
	xmlns="http://www.w3.org/2000/svg" 
	xmlns:xlink="http://www.w3.org/1999/xlink" 
	x="0px" y="0px" 
	width="192.756px" height="192.756px" 
	viewBox="0 0 192.756 192.756" 
	style="enable-background:new 0 0 192.756 192.756;" 
	xml:space="preserve"
>
<g><polygon style="fill:#FFFFFF;" points="0,192.756 192.756,192.756 192.756,0 0,0 0,192.756	"/><path style="fill-rule:evenodd;clip-rule:evenodd;fill:#B01842;" d="M161.407,38.834c0.609-0.611,0.854-1.344,0.977-2.199	c-0.122-0.854-0.367-1.587-0.977-2.198c-0.61-0.61-1.345-0.977-2.076-0.977c-0.978,0-1.711,0.367-2.32,0.977	c-0.611,0.611-0.977,1.344-0.855,2.198c-0.121,0.854,0.244,1.588,0.855,2.199c0.609,0.61,1.343,0.855,2.32,0.855	C160.062,39.689,160.797,39.444,161.407,38.834L161.407,38.834z"/><path style="fill-rule:evenodd;clip-rule:evenodd;fill:#B01842;" d="M175.694,40.91c-0.487-0.489-1.099-0.733-1.709-0.733	c-0.732,0-1.344,0.244-1.832,0.733c-0.488,0.488-0.732,1.099-0.732,1.832c0,0.61,0.244,1.221,0.732,1.831	c0.488,0.489,1.1,0.611,1.832,0.611c0.61,0,1.222-0.122,1.709-0.611c0.489-0.61,0.733-1.221,0.733-1.831	C176.428,42.009,176.184,41.398,175.694,40.91L175.694,40.91z"/><path style="fill-rule:evenodd;clip-rule:evenodd;fill:#B01842;" d="M106.208,122.363c-1.465-1.465-3.176-2.197-5.252-2.197	c-1.953,0-3.662,0.732-5.128,2.197c-1.465,1.467-2.198,3.176-2.198,5.129c0,2.076,0.733,3.787,2.198,5.252	c1.466,1.465,3.175,2.197,5.128,2.197c2.076,0,3.787-0.732,5.252-2.197c1.466-1.465,2.075-3.176,2.198-5.252	C108.283,125.539,107.674,123.83,106.208,122.363L106.208,122.363z"/><path style="fill-rule:evenodd;clip-rule:evenodd;fill:#B01842;" d="M84.837,138.85c-1.709,0-3.053,0.611-4.152,1.832	c-1.221,1.1-1.832,2.32-1.709,3.908c-0.123,1.588,0.488,3.053,1.709,4.152c1.099,1.1,2.443,1.709,4.152,1.709	c1.588,0,2.931-0.609,4.153-1.709c1.099-1.1,1.587-2.564,1.587-4.152s-0.488-2.809-1.587-3.908	C87.768,139.461,86.425,138.85,84.837,138.85L84.837,138.85z"/><path style="fill-rule:evenodd;clip-rule:evenodd;fill:#B01842;" d="M26.342,142.514c-0.489,0.488-0.855,1.1-0.855,1.832	c0,0.609,0.366,1.221,0.855,1.709c0.488,0.49,0.976,0.734,1.709,0.734c0.611,0,1.344-0.244,1.832-0.734	c0.489-0.488,0.733-1.1,0.733-1.709c0-0.732-0.244-1.344-0.733-1.832c-0.488-0.488-1.221-0.732-1.832-0.732	C27.317,141.781,26.83,142.025,26.342,142.514L26.342,142.514z"/><path style="fill-rule:evenodd;clip-rule:evenodd;fill:#B01842;" d="M45.148,148.01c-0.61-0.732-1.465-0.979-2.442-0.979	c-0.855,0-1.71,0.246-2.32,0.979c-0.611,0.609-0.978,1.465-0.978,2.32c0,0.977,0.367,1.709,0.978,2.441	c0.61,0.611,1.465,0.855,2.32,0.855c0.977,0,1.832-0.244,2.442-0.855c0.611-0.732,0.977-1.465,0.855-2.441	C46.125,149.475,45.759,148.619,45.148,148.01L45.148,148.01z"/><path style="fill-rule:evenodd;clip-rule:evenodd;fill:#B01842;" d="M60.413,155.092c0.733,0.732,1.71,1.1,2.809,1.223	c0.977-0.123,1.954-0.49,2.687-1.223c0.854-0.732,1.099-1.709,1.099-2.686c0-1.1-0.245-2.076-1.099-2.809	c-0.733-0.734-1.71-1.1-2.687-1.1c-1.099,0-2.076,0.365-2.809,1.1c-0.732,0.732-1.099,1.709-1.099,2.809	C59.313,153.383,59.681,154.359,60.413,155.092L60.413,155.092z"/><path style="fill-rule:evenodd;clip-rule:evenodd;fill:#B01842;" d="M141.501,31.873c-0.732-0.733-1.587-1.099-2.687-1.099	c-1.099,0-2.076,0.366-2.809,1.099c-0.733,0.732-1.1,1.71-1.1,2.686c0,1.099,0.366,2.076,1.1,2.809	c0.732,0.733,1.71,1.099,2.809,1.099c1.1,0,1.954-0.366,2.687-1.099c0.732-0.732,1.222-1.71,1.222-2.809	C142.723,33.583,142.233,32.605,141.501,31.873L141.501,31.873z"/><path style="fill-rule:evenodd;clip-rule:evenodd;fill:#B01842;" d="M121.352,38.223c-1.222-1.221-2.564-1.71-4.152-1.71	c-1.587,0-2.932,0.489-4.152,1.71c-1.099,1.099-1.71,2.564-1.71,4.152s0.611,2.931,1.71,4.03c1.221,1.099,2.565,1.71,4.152,1.71	c1.588,0,2.931-0.611,4.152-1.71c1.099-1.099,1.709-2.442,1.709-4.03S122.45,39.322,121.352,38.223L121.352,38.223z"/><path style="fill-rule:evenodd;clip-rule:evenodd;fill:#B01842;" d="M106.208,54.221c-1.465-1.466-3.176-2.198-5.252-2.198	c-1.953,0-3.662,0.732-5.25,2.198c-1.343,1.465-2.076,3.175-2.076,5.25c0,1.955,0.733,3.665,2.076,5.129	c1.588,1.465,3.297,2.198,5.25,2.198c2.076,0,3.787-0.733,5.13-2.198c1.588-1.465,2.32-3.175,2.32-5.129	C108.406,57.396,107.674,55.686,106.208,54.221L106.208,54.221z"/><path style="fill-rule:evenodd;clip-rule:evenodd;fill:#234D8E;" d="M124.526,61.182c-2.931,1.221-5.739,2.686-8.549,3.908v36.758	c-0.122,7.205,5.374,10.869,16.608,10.869v-5.74c-2.442,0-4.274-0.488-5.739-1.588c-1.588-1.221-2.32-2.686-2.32-4.639V61.182	L124.526,61.182z"/><path style="fill-rule:evenodd;clip-rule:evenodd;fill:#234D8E;" d="M156.399,75.348c-5.983,0-11.112,1.587-15.387,4.762	c-4.885,3.664-7.45,8.427-7.327,14.288c0,5.741,2.442,10.258,7.083,13.678c4.274,3.053,9.403,4.641,15.51,4.641	c4.151,0,7.938-0.488,11.479-1.344c2.687-0.732,4.763-1.588,9.526-4.152l-3.542-4.641c-6.84,3.664-10.869,4.641-15.877,4.641	c-4.273,0-7.814-0.977-10.38-2.932c-3.175-2.197-4.762-5.371-4.762-9.646h34.804c0.366-1.222,0.61-2.565,0.61-3.908	c0-4.641-1.831-8.304-5.617-11.113C168.611,76.813,163.238,75.348,156.399,75.348L156.399,75.348z M147.119,83.408	c2.563-1.832,5.739-2.687,9.646-2.687c4.031,0,7.328,0.977,9.648,2.809c2.197,1.709,3.297,3.908,3.297,6.472h-26.744	C143.333,87.438,144.676,85.239,147.119,83.408L147.119,83.408z"/><path style="fill-rule:evenodd;clip-rule:evenodd;fill:#234D8E;" d="M9.123,78.889l3.664,5.374	c2.809-2.199,6.961-3.298,12.333-3.298c6.961,0,10.38,2.931,10.38,8.793c-2.32-0.611-4.274-0.855-6.105-0.855	c-6.595,0-12.09,1.221-16.243,3.786c-4.273,2.442-6.473,5.618-6.473,9.282c0,3.053,1.344,5.615,4.152,7.693	c2.687,2.076,5.984,3.053,9.77,3.053c7.083,0,12.334-1.709,15.754-4.885c0.854,1.709,1.953,2.932,3.785,3.662	c1.71,0.855,4.274,1.223,7.816,1.223v-3.297c-2.565-1.1-3.786-3.176-3.786-6.229V90.246c0-5.25-1.587-9.036-4.763-11.479	c-3.175-2.32-8.304-3.419-15.264-3.419c-2.687,0-5.374,0.366-8.183,1.099C13.03,77.057,10.832,77.912,9.123,78.889L9.123,78.889z M29.883,93.666c0.977,0,2.931,0.244,5.617,0.61v8.792c-3.296,3.053-7.082,4.518-11.356,4.518c-5.984,0-8.915-1.83-8.915-5.494	c0-2.32,1.343-4.273,4.029-5.984C21.945,94.521,25.608,93.666,29.883,93.666L29.883,93.666z"/><path style="fill-rule:evenodd;clip-rule:evenodd;fill:#234D8E;" d="M55.04,79.011c-3.419,2.564-5.251,5.74-5.129,9.404	c0,5.983,3.419,10.136,10.136,12.456c-2.442,0.488-4.397,1.1-5.984,2.076c-1.588,0.977-2.442,2.076-2.442,3.297	c0,3.908,3.419,5.861,10.258,5.861c1.465-0.121,3.419-0.244,5.984-0.611c2.442-0.365,4.152-0.486,5.129-0.486	c5.739,0,8.548,1.342,8.548,4.273c-0.122,1.465-1.221,2.688-3.419,3.785c-2.198,0.979-5.25,1.465-9.037,1.465	c-4.274,0-8.916-1.342-13.922-3.785l-4.641,5.131c2.077,1.221,4.885,2.197,8.427,3.053c3.419,0.854,6.716,1.221,9.77,1.221	c6.105,0,11.234-0.977,15.142-3.053c4.031-2.076,5.984-4.764,5.984-8.061c0-2.932-1.343-5.373-3.908-7.084	c-2.686-1.588-6.472-2.441-11.113-2.441c-1.343,0-3.419,0.123-6.228,0.488c-2.686,0.365-4.64,0.488-5.984,0.488	c-2.93,0-4.396-0.488-4.396-1.344c0-0.732,0.733-1.221,2.198-1.588c1.344-0.488,2.443-0.732,3.297-0.732l7.084-0.609	c4.884-0.367,8.914-1.709,11.968-4.275c3.052-2.442,4.518-5.496,4.518-9.159c0-3.419-1.099-6.228-3.175-8.304l5.007-2.931	l-5.496-3.908l-4.274,3.786c-2.809-1.344-6.472-2.076-11.235-2.076C62.978,75.348,58.581,76.569,55.04,79.011L55.04,79.011z M61.39,82.797c1.954-1.587,4.396-2.442,7.328-2.32c2.808-0.122,5.006,0.733,6.96,2.32c1.832,1.586,2.809,3.542,2.809,5.739	c0,2.564-0.854,4.641-2.687,6.351c-1.709,1.587-4.03,2.32-7.082,2.32c-3.054,0-5.496-0.732-7.328-2.442	c-1.831-1.588-2.809-3.786-2.686-6.229C58.581,86.339,59.559,84.384,61.39,82.797L61.39,82.797z"/><polygon style="fill-rule:evenodd;clip-rule:evenodd;fill:#234D8E;" points="107.062,75.958 91.921,75.958 91.921,81.332	98.515,81.332 98.515,112.105 107.062,112.105 107.062,75.958	"/><polygon style="fill-rule:evenodd;clip-rule:evenodd;fill:#234D8E;" points="181.435,90.979 181.435,94.521 181.801,94.521	181.801,90.979 182.655,90.979 182.655,90.735 180.58,90.735 180.58,90.979 181.435,90.979	"/><polygon style="fill-rule:evenodd;clip-rule:evenodd;fill:#234D8E;" points="183.511,94.521 183.144,94.521 183.144,90.735	183.755,90.735 184.61,94.032 185.587,90.735 186.075,90.735 186.075,94.521 185.709,94.521 185.709,90.979 184.854,94.521	184.487,94.521 183.511,90.979 183.511,94.521	"/></g></svg>
