<?xml version="1.0" encoding="utf-8"?>
<!-- Generator: Adobe Illustrator 16.0.0, SVG Export Plug-In . SVG Version: 6.00 Build 0)  -->
<!DOCTYPE svg PUBLIC "-//W3C//DTD SVG 1.1//EN" "http://www.w3.org/Graphics/SVG/1.1/DTD/svg11.dtd">
<svg version="1.1" id="Layer_1" xmlns="http://www.w3.org/2000/svg" xmlns:xlink="http://www.w3.org/1999/xlink" x="0px" y="0px"
	 width="300px" height="300px" viewBox="0 0 300 300" enable-background="new 0 0 300 300" xml:space="preserve">
<path fill="#1F70C1" d="M25,37v6.842h48.662V37H25z M80.557,37v6.842h69.346c0,0-7.084-6.842-16.465-6.842H80.557z M163.508,37
	v6.842h41.953L202.969,37H163.508z M235.539,37l-2.492,6.842h41.57V37H235.539z M25,50.305v6.842h48.662v-6.842H25z M80.557,50.314
	v6.832h77.393c0,0-0.902-5.266-2.48-6.832H80.557z M163.508,50.314v6.832h46.551l-2.305-6.832H163.508z M230.555,50.314
	l-2.305,6.832h46.367v-6.832H230.555z M38.984,63.611v6.852h21.074v-6.852H38.984z M94.541,63.611v6.852h21.074v-6.852H94.541z
	 M136.113,63.611v6.852h21.074c0,0,1.336-3.619,1.336-6.852H136.113z M177.492,63.611v6.852h37.359l-2.488-6.852H177.492z
	 M225.969,63.611l-2.5,6.852h37.547v-6.852H225.969z M38.984,76.926v6.842h21.074v-6.842H38.984z M94.541,76.926v6.842h53.828
	c0,0,4.502-3.51,5.936-6.842H94.541z M177.492,76.926v6.842h21.07v-3.809l1.34,3.809h38.605l1.434-3.809v3.809h21.074v-6.842
	h-39.563l-2.098,5.795l-2.109-5.795H177.492z M38.984,90.232v6.842h21.074v-6.842H38.984z M94.541,90.232v6.842h59.764
	c-1.434-3.32-5.936-6.842-5.936-6.842H94.541z M177.492,90.232v6.842h21.07v-6.842H177.492z M202.391,90.232l2.551,6.842h28.945
	l2.422-6.842H202.391z M239.941,90.232v6.842h21.074v-6.842H239.941z M38.984,103.539v6.84h21.074v-6.84H38.984z M94.541,103.539
	v6.84h21.074v-6.84H94.541z M136.113,103.539v6.84h22.41c0-3.23-1.336-6.84-1.336-6.84H136.113z M177.492,103.539v6.84h21.07v-6.84
	H177.492z M207.18,103.539l2.469,6.84h19.406l2.488-6.84H207.18z M239.941,103.539v6.84h21.074v-6.84H239.941z M25.381,116.844
	v6.852h48.662v-6.852H25.381z M80.557,116.844v6.852h74.912c1.578-1.57,2.48-6.852,2.48-6.852H80.557z M163.887,116.844v6.852
	h34.676v-6.852H163.887z M211.973,116.844l2.539,6.852h9.871l2.383-6.852H211.973z M239.941,116.844v6.852H275v-6.852H239.941z
	 M25.381,130.156V137h48.662v-6.844H25.381z M80.557,130.156v6.836h52.881c9.381,0,16.465-6.836,16.465-6.836H80.557z
	 M163.887,130.156V137h34.676v-6.844H163.887z M216.789,130.156l2.438,6.824l0.422,0.012l2.48-6.836H216.789z M239.941,130.156V137
	H275v-6.844H239.941z"/>
<g>
	<path fill="#059400" d="M172.702,171.882c0-9.855-7.304-13.735-18.28-13.735c-4.988,0-8.422,0.364-9.422,0.737V186h9.491
		C165.966,186,172.702,179.988,172.702,171.882z"/>
	<path fill="#059400" d="M74.505,158.386c-5.613,0-10.505,0.498-12.505,1.122v66.357c2,0.499,6.518,0.624,10.758,0.624
		c23.201,0,35.799-12.973,35.799-35.674C108.682,170.983,97.456,158.386,74.505,158.386z"/>
	<path fill="#059400" d="M153.618,194H145v32.239c2,0.375,5.058,0.5,8.924,0.5c11.225,0,21.488-4.21,21.488-16.433
		C175.412,198.832,165.467,194,153.618,194z"/>
	<path fill="#059400" d="M25,145v95h250v-95H25z M107.591,223.121c-7.859,7.859-20.687,12.101-37.027,12.101
		c-7.734,0-14.564-0.376-19.564-0.999v-82.697c6-0.998,14.325-1.747,22.933-1.747c15.591,0,26.62,3.617,33.98,10.477
		c7.484,6.861,11.813,16.59,11.813,30.187C119.726,204.162,115.449,215.389,107.591,223.121z M179.688,227.362
		c-5.862,5.363-15.234,7.859-28.956,7.859c-7.484,0-13.732-0.499-16.732-0.999v-82.697c5-0.998,12.117-1.747,19.726-1.747
		c10.851,0,17.782,1.872,23.021,6.113c4.365,3.243,6.728,8.231,6.728,14.843c0,8.107-5.475,15.217-14.475,18.46v0.25
		c8,1.995,17.566,8.605,17.566,21.079C186.566,217.758,183.929,223.246,179.688,227.362z M249,234h-51v-6.263l8.369-8.358
		c20.705-19.708,29.941-30.185,30.066-42.408c0-8.231-4.052-15.841-16.15-15.841c-7.358,0-13.502,3.742-17.243,6.86l-3.507-7.734
		c5.612-4.74,13.588-8.231,22.944-8.231c17.462,0,24.817,11.974,24.817,23.574c0,14.969-10.787,27.067-27.875,43.532L213,225.118
		V225h36V234z"/>
</g>
</svg>
