<?xml version="1.0" encoding="utf-8"?><!-- Generator: Adobe Illustrator 16.0.0, SVG Export Plug-In . SVG Version: 6.00 Build 0) --><!DOCTYPE svg PUBLIC "-//W3C//DTD SVG 1.1//EN" "http://www.w3.org/Graphics/SVG/1.1/DTD/svg11.dtd"><svg version="1.1" id="svg2" xmlns:rdf="http://www.w3.org/1999/02/22-rdf-syntax-ns#" xmlns:cc="http://creativecommons.org/ns#" xmlns:dc="http://purl.org/dc/elements/1.1/" xmlns:svg="http://www.w3.org/2000/svg" xmlns:inkscape="http://www.inkscape.org/namespaces/inkscape" xmlns="http://www.w3.org/2000/svg" xmlns:xlink="http://www.w3.org/1999/xlink" x="0px" y="0px" width="629.46px" height="146.469px" viewBox="18.803 20.515 629.46 146.469" enable-background="new 18.803 20.515 629.46 146.469" xml:space="preserve"><rect x="298.361" y="82.031" fill="none" width="85.246" height="23.438"/><g id="g16"><path id="path22" inkscape:connector-curvature="0" fill="#8A4182" d="M193,112.57c0.115,5.045,3.21,10.201,8.941,10.201	c3.438,0,5.96-1.604,7.681-4.47c1.604-2.866,1.604-7.106,1.604-10.315V66.838h-8.94V53.77h33.354v13.068h-8.824v43.096	c0,7.337-0.46,13.066-5.616,19.027c-4.585,5.273-12.035,8.253-19.143,8.253c-14.672,0-25.905-9.743-25.33-24.644H193"/><path id="path24" inkscape:connector-curvature="0" fill="#8A4182" d="M287.676,104.663c0-10.088-8.368-18.227-18.454-18.227	c-10.43,0-18.454,8.598-18.454,18.913c0,9.973,8.368,18.225,18.226,18.225C279.536,123.574,287.676,115.093,287.676,104.663	L287.676,104.663z M287.446,127.356c-4.471,6.763-11.691,9.857-19.715,9.857c-17.537,0-31.405-14.556-31.405-31.864	c0-17.767,14.213-32.552,32.093-32.552c7.909,0,14.786,3.667,19.027,10.315v-8.711h21.893v13.066h-7.68v35.075h7.68v13.066h-21.893	V127.356"/><path id="path26" inkscape:connector-curvature="0" fill="#8A4182" d="M327.792,117.843c0.458,5.502,4.126,9.169,9.857,9.169	c4.241,0,8.366-2.979,8.366-7.563c0-6.075-5.73-7.106-10.431-8.368c-10.659-2.75-22.351-6.075-22.351-19.484	c0-11.692,9.857-18.454,20.747-18.454c5.5,0,10.429,1.147,13.867,5.501v-4.24h10.316v16.621h-13.526	c-0.229-4.357-3.552-7.222-7.907-7.222c-3.782,0-7.794,2.178-7.794,6.418c0,5.731,5.616,6.991,10.087,8.022	c11.002,2.521,22.809,5.962,22.809,19.717c0,12.379-10.43,19.255-21.892,19.255c-6.191,0-11.808-1.948-15.818-6.647v5.043h-10.659	v-17.767H327.792"/><path id="path28" inkscape:connector-curvature="0" fill="#8A4182" d="M373.522,87.468h-7.907V74.402h20.632v9.169	c3.897-6.418,9.857-10.66,17.65-10.66c8.481,0,15.589,5.157,19.026,12.837c3.325-7.794,11.578-12.837,20.059-12.837	c6.649,0,13.184,2.75,17.652,7.794c4.814,5.617,4.814,11.691,4.814,18.683v23.154h7.908v13.066h-29.801v-13.066h7.91v-19.715	c0-4.012,0-7.565-1.834-11.119c-2.293-3.323-6.076-5.043-9.973-5.043c-3.781,0-7.91,1.605-10.316,4.584	c-2.865,3.67-2.865,7.107-2.865,11.578v19.715h7.908v13.066h-29.802v-13.066h7.91v-18.798c0-3.669,0-8.253-1.833-11.462	c-1.949-3.667-5.962-5.617-10.088-5.617c-3.897,0-7.222,1.376-9.742,4.472c-3.097,3.782-3.325,7.793-3.325,12.493v18.912h7.908	v13.066h-29.8v-13.066h7.907V87.468"/><path id="path30" inkscape:connector-curvature="0" fill="#8A4182" d="M499.833,68.557h-13.983V53.77h13.983V68.557z M499.833,122.543h7.909v13.066h-29.917v-13.066h8.024V87.468h-7.909V74.402h21.894L499.833,122.543"/><path id="path32" inkscape:connector-curvature="0" fill="#8A4182" d="M519.89,87.468h-7.909V74.402h21.894v8.711	c3.668-6.763,10.544-10.087,18.107-10.087c6.649,0,13.182,2.752,17.654,7.566c5.041,5.617,5.156,11.004,5.156,17.994v23.957h7.908	v13.066h-29.799v-13.066h7.908v-19.83c0-3.782,0-7.679-2.408-11.004c-2.521-3.323-6.648-4.927-10.773-4.927	c-4.242,0-8.598,1.719-11.117,5.156c-2.637,3.438-2.637,8.711-2.637,12.839v17.766h7.906v13.066h-29.799v-13.066h7.908V87.468"/><path id="path34" inkscape:connector-curvature="0" fill="#8A4182" d="M635.31,99.504c-2.405-8.825-10.2-14.443-19.255-14.443	c-8.255,0-16.163,6.418-17.882,14.443H635.31z M645.969,117.615c-4.813,11.689-16.158,19.599-28.881,19.599	c-17.884,0-32.21-13.983-32.21-31.979c0-18.11,13.64-32.666,31.864-32.666c8.483,0,16.965,3.782,22.924,9.858	c6.077,6.418,8.598,14.212,8.598,22.923l-0.458,4.929h-49.517c1.834,8.483,9.629,14.671,18.34,14.671	c6.074,0,11.346-2.291,14.785-7.334H645.969"/><path id="path36" inkscape:connector-curvature="0" fill="#8A4182" d="M86.362,81.162h11.344l2.817-3.879v-30.39H83.545v30.393	L86.362,81.162"/><path id="path38" inkscape:connector-curvature="0" fill="#8A4182" d="M79.05,94.718l3.505-10.788l-2.819-3.88l-28.902-9.391	l-5.247,16.148l28.907,9.393L79.05,94.718"/><path id="path40" inkscape:connector-curvature="0" fill="#8A4182" d="M89.681,105.861l-9.177-6.67l-4.561,1.484l-17.863,24.587	l13.735,9.979l17.865-24.588V105.861"/><path id="path42" inkscape:connector-curvature="0" fill="#8A4182" d="M103.565,99.191l-9.179,6.668l0.002,4.795l17.862,24.587	l13.737-9.979l-17.866-24.589L103.565,99.191"/><path id="path44" inkscape:connector-curvature="0" fill="#8A4182" d="M101.51,83.927l3.507,10.79l4.561,1.479l28.903-9.39	l-5.246-16.148l-28.905,9.393L101.51,83.927"/><path id="path46" inkscape:connector-curvature="0" fill="#8A4182" d="M92.038,20.515c-40.381,0-73.234,32.847-73.234,73.223	c0,40.389,32.854,73.247,73.234,73.247c40.377,0,73.226-32.857,73.226-73.247C165.263,53.362,132.415,20.515,92.038,20.515	L92.038,20.515z M92.038,35.341c32.246,0,58.398,26.141,58.398,58.396c0,32.266-26.152,58.418-58.398,58.418	c-32.26,0-58.407-26.152-58.407-58.418C33.631,61.482,59.778,35.341,92.038,35.341"/><path id="path48" inkscape:connector-curvature="0" fill="#8A4182" d="M136.391,110.015l-21.972-7.14l1.454-4.477l21.97,7.141	L136.391,110.015"/><path id="path50" inkscape:connector-curvature="0" fill="#8A4182" d="M108.37,74.741l-3.808-2.766l13.578-18.691l3.808,2.765	L108.37,74.741"/><path id="path52" inkscape:connector-curvature="0" fill="#8A4182" d="M75.933,74.569l-13.576-18.69l3.808-2.767l13.576,18.692	L75.933,74.569"/><path id="path54" inkscape:connector-curvature="0" fill="#8A4182" d="M47.586,109.734l-1.453-4.476l21.97-7.136l1.453,4.475	L47.586,109.734"/><path id="path56" inkscape:connector-curvature="0" fill="#8A4182" d="M89.536,140.426h4.705v-23.102h-4.705V140.426z"/></g></svg>