<?xml version="1.0" encoding="iso-8859-1"?><!-- Generator: Adobe Illustrator 16.0.0, SVG Export Plug-In . SVG Version: 6.00 Build 0) -->
<!DOCTYPE svg PUBLIC "-//W3C//DTD SVG 1.1//EN" "http://www.w3.org/Graphics/SVG/1.1/DTD/svg11.dtd">
<svg 
	version="1.1" 
	id="Layer_1"
	xmlns="http://www.w3.org/2000/svg"
	xmlns:xlink="http://www.w3.org/1999/xlink"
	x="0px" y="0px" 
	width="290.829px" 
	height="540.906px" 
	viewBox="6.527 4.399 290.829 540.906" 
	style="enable-background:new 6.527 4.399 290.829 540.906;" 
	xml:space="preserve"
>
<path style="fill:#E76F00;" d="M285.104,430.945h-2.037v-1.14h5.486v1.14h-2.025v5.688h-1.424V430.945z M296.046,431.242h-0.032	l-2.02,5.393h-0.924l-2.006-5.393h-0.024v5.393h-1.343v-6.828h1.976l1.86,4.835l1.854-4.835h1.969v6.828h-1.311L296.046,431.242	L296.046,431.242z"/><path style="fill:#5382A1;" d="M102.681,291.324c0,0-14.178,8.245,10.09,11.035c29.4,3.354,44.426,2.873,76.825-3.259	c0,0,8.518,5.341,20.414,9.967C137.38,340.195,45.634,307.264,102.681,291.324"/><path style="fill:#5382A1;" d="M93.806,250.704c0,0-15.902,11.771,8.384,14.283c31.406,3.24,56.208,3.505,99.125-4.759	c0,0,5.937,6.018,15.271,9.309C128.771,295.215,30.962,271.562,93.806,250.704"/><path style="fill:#E76F00;" d="M168.625,181.799c17.896,20.604-4.701,39.146-4.701,39.146s45.439-23.458,24.571-52.833	c-19.491-27.395-34.438-41.005,46.479-87.934C234.975,80.177,107.961,111.899,168.625,181.799"/><path style="fill:#5382A1;" d="M264.684,321.369c0,0,10.492,8.646-11.555,15.333c-41.923,12.7-174.488,16.535-211.314,0.507	c-13.238-5.76,11.587-13.752,19.396-15.429c8.144-1.766,12.798-1.437,12.798-1.437c-14.722-10.371-95.157,20.363-40.857,29.166	C181.236,373.524,303.096,338.695,264.684,321.369"/><path style="fill:#5382A1;" d="M109.499,208.617c0,0-67.431,16.016-23.879,21.832c18.389,2.462,55.047,1.905,89.192-0.956	c27.906-2.354,55.928-7.358,55.928-7.358s-9.84,4.214-16.959,9.074c-68.475,18.01-200.756,9.631-162.674-8.79	C83.313,206.851,109.499,208.617,109.499,208.617"/><path style="fill:#5382A1;" d="M230.462,276.231c69.608-36.171,37.425-70.932,14.96-66.248c-5.506,1.146-7.961,2.139-7.961,2.139	s2.045-3.202,5.947-4.588c44.441-15.624,78.619,46.081-14.346,70.521C229.062,278.055,230.141,277.093,230.462,276.231"/><path style="fill:#E76F00;" d="M188.495,4.399c0,0,38.55,38.562-36.563,97.862c-60.233,47.567-13.735,74.689-0.025,105.678	c-35.158-31.723-60.96-59.647-43.65-85.637C133.663,84.151,204.049,65.654,188.495,4.399"/><path style="fill:#5382A1;" d="M116.339,374.246c66.815,4.277,169.417-2.373,171.846-33.987c0,0-4.67,11.984-55.219,21.503	c-57.027,10.731-127.364,9.479-169.081,2.601C63.887,364.361,72.426,371.43,116.339,374.246"/><path style="fill:#E76F00;" d="M105.389,495.049c-6.303,5.467-12.96,8.536-18.934,8.536c-8.527,0-13.134-5.113-13.134-13.314	c0-8.871,4.937-15.357,24.739-15.357h7.328L105.389,495.049 M122.781,514.672v-60.742c0-15.518-8.85-25.756-30.188-25.756	c-12.457,0-23.369,3.076-32.238,6.999l2.56,10.752c6.983-2.563,16.022-4.949,24.894-4.949c12.292,0,17.58,4.949,17.58,15.181v7.678	h-6.135c-29.865,0-43.337,11.593-43.337,28.993c0,15.018,8.878,23.554,25.594,23.554c10.745,0,18.766-4.437,26.264-10.929	l1.361,9.221L122.781,514.672L122.781,514.672z"/><path style="fill:#E76F00;" d="M180.824,514.672h-21.691l-26.106-84.96h18.944l16.198,52.199l3.601,15.699	c8.195-22.698,13.992-45.726,16.891-67.898h18.427C202.15,457.688,193.266,488.396,180.824,514.672"/><path style="fill:#E76F00;" d="M264.038,495.049c-6.315,5.467-12.983,8.536-18.958,8.536c-8.512,0-13.131-5.113-13.131-13.314	c0-8.871,4.947-15.357,24.748-15.357h7.341V495.049 M281.428,514.672v-60.742c0-15.518-8.871-25.756-30.186-25.756	c-12.465,0-23.381,3.076-32.246,6.999l2.557,10.752c6.985-2.563,16.041-4.949,24.906-4.949c12.283,0,17.579,4.949,17.579,15.181	v7.678h-6.146c-29.873,0-43.34,11.593-43.34,28.993c0,15.018,8.871,23.554,25.584,23.554c10.752,0,18.77-4.437,26.28-10.929	l1.366,9.221L281.428,514.672L281.428,514.672z"/><path style="fill:#E76F00;" d="M36.847,529.099c-4.958,7.239-12.966,12.966-21.733,16.206L6.527,535.2	c6.673-3.424,12.396-8.954,15.055-14.104c2.3-4.581,3.252-10.485,3.252-24.604v-96.995h18.478v95.666	C43.311,514.038,41.802,521.663,36.847,529.099"/></svg>
