<?xml version="1.0" encoding="iso-8859-1"?>
<!-- Generator: Adobe Illustrator 16.0.0, SVG Export Plug-In . SVG Version: 6.00 Build 0) -->
<!DOCTYPE svg PUBLIC "-//W3C//DTD SVG 1.1//EN" "http://www.w3.org/Graphics/SVG/1.1/DTD/svg11.dtd">
<svg 
	version="1.1" 
	id="Layer_1" 
	xmlns="http://www.w3.org/2000/svg" 
	xmlns:xlink="http://www.w3.org/1999/xlink" 
	x="0px" y="0px" 
	width="192.756px" height="192.756px" 
	viewBox="0 0 192.756 192.756"
	style="enable-background:new 0 0 192.756 192.756;" 
	xml:space="preserve"
>
<g><polygon style="fill-rule:evenodd;clip-rule:evenodd;fill:#FFFFFF;" points="0,0 192.756,0 192.756,192.756 0,192.756 0,0	"/><path style="fill-rule:evenodd;clip-rule:evenodd;fill:#3174B9;" d="M80.372,101.729c0,0-4.604,2.679,3.28,3.584	c9.554,1.091,14.434,0.934,24.959-1.057c0,0,2.771,1.735,6.639,3.236C91.649,117.605,61.837,106.907,80.372,101.729L80.372,101.729	z"/><path style="fill-rule:evenodd;clip-rule:evenodd;fill:#3174B9;" d="M77.487,88.532c0,0-5.165,3.823,2.726,4.639	c10.206,1.054,18.262,1.14,32.211-1.544c0,0,1.926,1.955,4.957,3.023C88.85,102.995,57.074,95.307,77.487,88.532L77.487,88.532z"/><path style="fill-rule:evenodd;clip-rule:evenodd;fill:#CA3132;" d="M101.797,66.143c5.818,6.697-1.525,12.72-1.525,12.72	s14.766-7.621,7.984-17.168c-6.332-8.899-11.189-13.32,15.102-28.566C123.357,33.128,82.088,43.432,101.797,66.143L101.797,66.143z	"/><path style="fill-rule:evenodd;clip-rule:evenodd;fill:#3174B9;" d="M133.01,111.491c0,0,3.408,2.81-3.754,4.983	c-13.619,4.125-56.694,5.369-68.659,0.164c-4.298-1.872,3.766-4.467,6.303-5.015c2.646-0.572,4.156-0.468,4.156-0.468	c-4.783-3.368-30.916,6.615-13.272,9.479C105.896,128.435,145.488,117.122,133.01,111.491L133.01,111.491z"/><path style="fill-rule:evenodd;clip-rule:evenodd;fill:#3174B9;" d="M82.587,74.857c0,0-21.908,5.205-7.757,7.097	c5.977,0.799,17.883,0.615,28.982-0.316c9.068-0.761,18.17-2.389,18.17-2.389s-3.195,1.371-5.51,2.949	c-22.251,5.853-65.229,3.127-52.855-2.856C74.079,74.281,82.587,74.857,82.587,74.857L82.587,74.857z"/><path style="fill-rule:evenodd;clip-rule:evenodd;fill:#3174B9;" d="M121.891,96.824c22.617-11.75,12.16-23.044,4.859-21.522	c-1.785,0.373-2.586,0.695-2.586,0.695s0.666-1.042,1.932-1.49c14.441-5.075,25.545,14.972-4.656,22.911	C121.439,97.418,121.787,97.104,121.891,96.824L121.891,96.824z"/><path style="fill-rule:evenodd;clip-rule:evenodd;fill:#CA3132;" d="M108.256,8.504c0,0,12.523,12.531-11.881,31.794	c-19.571,15.458-4.462,24.269-0.006,34.34C84.943,64.331,76.562,55.256,82.184,46.812C90.438,34.417,113.309,28.406,108.256,8.504	L108.256,8.504z"/><path style="fill-rule:evenodd;clip-rule:evenodd;fill:#3174B9;" d="M84.812,128.674c21.706,1.388,55.045-0.771,55.836-11.044	c0,0-1.518,3.894-17.941,6.983c-18.529,3.488-41.386,3.082-54.938,0.845C67.769,125.458,70.546,127.756,84.812,128.674	L84.812,128.674z"/><path style="fill-rule:evenodd;clip-rule:evenodd;fill:#CA3132;" d="M139.645,147.096h-0.66v-0.37h1.781v0.37h-0.66v1.848h-0.461	V147.096L139.645,147.096L139.645,147.096z M143.199,147.188h-0.008l-0.656,1.755h-0.301l-0.652-1.755h-0.008v1.755h-0.438v-2.218	h0.643l0.604,1.569l0.604-1.569h0.637v2.218h-0.424V147.188L143.199,147.188z"/><path style="fill-rule:evenodd;clip-rule:evenodd;fill:#CA3132;" d="M81.255,167.921c-2.047,1.774-4.211,2.772-6.154,2.772	c-2.768,0-4.27-1.663-4.27-4.324c0-2.881,1.608-4.989,8.044-4.989h2.379V167.921L81.255,167.921L81.255,167.921z M86.905,174.295	v-19.732c0-5.043-2.876-8.371-9.809-8.371c-4.045,0-7.591,0.999-10.474,2.272l0.83,3.495c2.271-0.834,5.207-1.607,8.089-1.607	c3.994,0,5.713,1.607,5.713,4.934v2.495h-1.996c-9.702,0-14.08,3.764-14.08,9.423c0,4.876,2.885,7.648,8.316,7.648	c3.491,0,6.099-1.441,8.534-3.55l0.443,2.993H86.905L86.905,174.295z"/><path style="fill-rule:evenodd;clip-rule:evenodd;fill:#CA3132;" d="M105.762,174.295h-7.045l-8.483-27.601h6.154l5.265,16.961	l1.172,5.096c2.656-7.371,4.541-14.854,5.484-22.057h5.984C112.691,155.782,109.805,165.76,105.762,174.295L105.762,174.295z"/><path style="fill-rule:evenodd;clip-rule:evenodd;fill:#CA3132;" d="M132.799,167.921c-2.053,1.774-4.217,2.772-6.156,2.772	c-2.768,0-4.268-1.663-4.268-4.324c0-2.881,1.609-4.989,8.041-4.989h2.383V167.921L132.799,167.921L132.799,167.921z M138.451,174.295v-19.732c0-5.043-2.885-8.371-9.811-8.371c-4.049,0-7.594,0.999-10.477,2.272l0.83,3.495	c2.271-0.834,5.213-1.607,8.096-1.607c3.988,0,5.709,1.607,5.709,4.934v2.495h-1.996c-9.703,0-14.078,3.764-14.078,9.423	c0,4.876,2.879,7.648,8.311,7.648c3.494,0,6.098-1.441,8.539-3.55l0.445,2.993H138.451L138.451,174.295z"/><path style="fill-rule:evenodd;clip-rule:evenodd;fill:#CA3132;" d="M58.983,178.985c-1.61,2.353-4.214,4.216-7.061,5.267	l-2.79-3.286c2.169-1.113,4.027-2.91,4.892-4.582c0.745-1.49,1.056-3.406,1.056-7.992v-31.515h6.005v31.08	C61.085,174.091,60.595,176.57,58.983,178.985L58.983,178.985z"/></g></svg>
